<svg id="visual" viewBox="0 0 1920 1080" width="1920" height="1080" xmlns="http://www.w3.org/2000/svg" xmlns:xlink="http://www.w3.org/1999/xlink" version="1.1"><path d="M0 754L24.7 748.5C49.3 743 98.7 732 147.8 729.2C197 726.3 246 731.7 295.2 744.2C344.3 756.7 393.7 776.3 443 770C492.3 763.7 541.7 731.3 590.8 722.2C640 713 689 727 738.2 742.3C787.3 757.7 836.7 774.3 886 778.7C935.3 783 984.7 775 1034 771.3C1083.3 767.7 1132.7 768.3 1181.8 757C1231 745.7 1280 722.3 1329.2 716.8C1378.3 711.3 1427.7 723.7 1477 733C1526.3 742.3 1575.7 748.7 1624.8 746.2C1674 743.7 1723 732.3 1772.2 735.3C1821.3 738.3 1870.7 755.7 1895.3 764.3L1920 773L1920 1081L1895.3 1081C1870.7 1081 1821.3 1081 1772.2 1081C1723 1081 1674 1081 1624.8 1081C1575.7 1081 1526.3 1081 1477 1081C1427.7 1081 1378.3 1081 1329.2 1081C1280 1081 1231 1081 1181.8 1081C1132.7 1081 1083.3 1081 1034 1081C984.7 1081 935.3 1081 886 1081C836.7 1081 787.3 1081 738.2 1081C689 1081 640 1081 590.8 1081C541.7 1081 492.3 1081 443 1081C393.7 1081 344.3 1081 295.2 1081C246 1081 197 1081 147.8 1081C98.7 1081 49.3 1081 24.7 1081L0 1081Z" fill="#0096ff"></path><path d="M0 781L24.7 793.2C49.3 805.3 98.7 829.7 147.8 838.2C197 846.7 246 839.3 295.2 828.7C344.3 818 393.7 804 443 796.7C492.3 789.3 541.7 788.7 590.8 796.8C640 805 689 822 738.2 832C787.3 842 836.7 845 886 843.7C935.3 842.3 984.7 836.7 1034 834.7C1083.3 832.7 1132.7 834.3 1181.8 830.8C1231 827.3 1280 818.7 1329.2 818.7C1378.3 818.7 1427.7 827.3 1477 831.7C1526.3 836 1575.7 836 1624.8 836.8C1674 837.7 1723 839.3 1772.2 829.2C1821.3 819 1870.7 797 1895.3 786L1920 775L1920 1081L1895.3 1081C1870.7 1081 1821.3 1081 1772.2 1081C1723 1081 1674 1081 1624.8 1081C1575.7 1081 1526.3 1081 1477 1081C1427.7 1081 1378.3 1081 1329.2 1081C1280 1081 1231 1081 1181.8 1081C1132.7 1081 1083.3 1081 1034 1081C984.7 1081 935.3 1081 886 1081C836.7 1081 787.3 1081 738.2 1081C689 1081 640 1081 590.8 1081C541.7 1081 492.3 1081 443 1081C393.7 1081 344.3 1081 295.2 1081C246 1081 197 1081 147.8 1081C98.7 1081 49.3 1081 24.7 1081L0 1081Z" fill="#008afd"></path><path d="M0 903L24.7 897C49.3 891 98.7 879 147.8 870.5C197 862 246 857 295.2 864C344.3 871 393.7 890 443 898.2C492.3 906.3 541.7 903.7 590.8 895.7C640 887.7 689 874.3 738.2 863.8C787.3 853.3 836.7 845.7 886 841.3C935.3 837 984.7 836 1034 847.8C1083.3 859.7 1132.7 884.3 1181.8 889.2C1231 894 1280 879 1329.2 877.7C1378.3 876.3 1427.7 888.7 1477 886.8C1526.3 885 1575.7 869 1624.8 868.7C1674 868.3 1723 883.7 1772.2 881.3C1821.3 879 1870.7 859 1895.3 849L1920 839L1920 1081L1895.3 1081C1870.7 1081 1821.3 1081 1772.2 1081C1723 1081 1674 1081 1624.8 1081C1575.7 1081 1526.3 1081 1477 1081C1427.7 1081 1378.3 1081 1329.2 1081C1280 1081 1231 1081 1181.8 1081C1132.7 1081 1083.3 1081 1034 1081C984.7 1081 935.3 1081 886 1081C836.7 1081 787.3 1081 738.2 1081C689 1081 640 1081 590.8 1081C541.7 1081 492.3 1081 443 1081C393.7 1081 344.3 1081 295.2 1081C246 1081 197 1081 147.8 1081C98.7 1081 49.3 1081 24.7 1081L0 1081Z" fill="#007efa"></path><path d="M0 914L24.7 918.7C49.3 923.3 98.7 932.7 147.8 934.5C197 936.3 246 930.7 295.2 929C344.3 927.3 393.7 929.7 443 927.7C492.3 925.7 541.7 919.3 590.8 915.3C640 911.3 689 909.7 738.2 909.2C787.3 908.7 836.7 909.3 886 921.5C935.3 933.7 984.7 957.3 1034 956.7C1083.3 956 1132.7 931 1181.8 927.5C1231 924 1280 942 1329.2 953.2C1378.3 964.3 1427.7 968.7 1477 971.2C1526.3 973.7 1575.7 974.3 1624.8 975.7C1674 977 1723 979 1772.2 968.7C1821.3 958.3 1870.7 935.7 1895.3 924.3L1920 913L1920 1081L1895.3 1081C1870.7 1081 1821.3 1081 1772.2 1081C1723 1081 1674 1081 1624.8 1081C1575.7 1081 1526.3 1081 1477 1081C1427.7 1081 1378.3 1081 1329.2 1081C1280 1081 1231 1081 1181.8 1081C1132.7 1081 1083.3 1081 1034 1081C984.7 1081 935.3 1081 886 1081C836.7 1081 787.3 1081 738.2 1081C689 1081 640 1081 590.8 1081C541.7 1081 492.3 1081 443 1081C393.7 1081 344.3 1081 295.2 1081C246 1081 197 1081 147.8 1081C98.7 1081 49.3 1081 24.7 1081L0 1081Z" fill="#0071f5"></path><path d="M0 1001L24.7 1006C49.3 1011 98.7 1021 147.8 1024.3C197 1027.7 246 1024.3 295.2 1021C344.3 1017.7 393.7 1014.3 443 1009.2C492.3 1004 541.7 997 590.8 996.2C640 995.3 689 1000.7 738.2 1003C787.3 1005.3 836.7 1004.7 886 1001.2C935.3 997.7 984.7 991.3 1034 995.2C1083.3 999 1132.7 1013 1181.8 1010.7C1231 1008.3 1280 989.7 1329.2 990C1378.3 990.3 1427.7 1009.7 1477 1017.3C1526.3 1025 1575.7 1021 1624.8 1015C1674 1009 1723 1001 1772.2 996.7C1821.3 992.3 1870.7 991.7 1895.3 991.3L1920 991L1920 1081L1895.3 1081C1870.7 1081 1821.3 1081 1772.2 1081C1723 1081 1674 1081 1624.8 1081C1575.7 1081 1526.3 1081 1477 1081C1427.7 1081 1378.3 1081 1329.2 1081C1280 1081 1231 1081 1181.8 1081C1132.7 1081 1083.3 1081 1034 1081C984.7 1081 935.3 1081 886 1081C836.7 1081 787.3 1081 738.2 1081C689 1081 640 1081 590.8 1081C541.7 1081 492.3 1081 443 1081C393.7 1081 344.3 1081 295.2 1081C246 1081 197 1081 147.8 1081C98.7 1081 49.3 1081 24.7 1081L0 1081Z" fill="#0064f0"></path></svg>