<svg id="visual" viewBox="0 0 1980 1080" width="1980" height="1080" xmlns="http://www.w3.org/2000/svg" xmlns:xlink="http://www.w3.org/1999/xlink" version="1.1"><rect x="0" y="0" width="1980" height="1080" fill="#ffffff"></rect><path d="M0 544L33 552C66 560 132 576 198 588.2C264 600.3 330 608.7 396 609.2C462 609.7 528 602.3 594 599.3C660 596.3 726 597.7 792 590.5C858 583.3 924 567.7 990 566.7C1056 565.7 1122 579.3 1188 601.5C1254 623.7 1320 654.3 1386 661.5C1452 668.7 1518 652.3 1584 635.2C1650 618 1716 600 1782 590.5C1848 581 1914 580 1947 579.5L1980 579L1980 1081L1947 1081C1914 1081 1848 1081 1782 1081C1716 1081 1650 1081 1584 1081C1518 1081 1452 1081 1386 1081C1320 1081 1254 1081 1188 1081C1122 1081 1056 1081 990 1081C924 1081 858 1081 792 1081C726 1081 660 1081 594 1081C528 1081 462 1081 396 1081C330 1081 264 1081 198 1081C132 1081 66 1081 33 1081L0 1081Z" fill="#0096ff"></path><path d="M0 757L33 755.2C66 753.3 132 749.7 198 747.3C264 745 330 744 396 739.8C462 735.7 528 728.3 594 733.2C660 738 726 755 792 758.7C858 762.3 924 752.7 990 735.7C1056 718.7 1122 694.3 1188 672.8C1254 651.3 1320 632.7 1386 636.8C1452 641 1518 668 1584 681.3C1650 694.7 1716 694.3 1782 701C1848 707.7 1914 721.3 1947 728.2L1980 735L1980 1081L1947 1081C1914 1081 1848 1081 1782 1081C1716 1081 1650 1081 1584 1081C1518 1081 1452 1081 1386 1081C1320 1081 1254 1081 1188 1081C1122 1081 1056 1081 990 1081C924 1081 858 1081 792 1081C726 1081 660 1081 594 1081C528 1081 462 1081 396 1081C330 1081 264 1081 198 1081C132 1081 66 1081 33 1081L0 1081Z" fill="#008afd"></path><path d="M0 865L33 850C66 835 132 805 198 781.2C264 757.3 330 739.7 396 753.3C462 767 528 812 594 809.5C660 807 726 757 792 750C858 743 924 779 990 806.2C1056 833.3 1122 851.7 1188 849.3C1254 847 1320 824 1386 813.7C1452 803.3 1518 805.7 1584 803.8C1650 802 1716 796 1782 779.7C1848 763.3 1914 736.7 1947 723.3L1980 710L1980 1081L1947 1081C1914 1081 1848 1081 1782 1081C1716 1081 1650 1081 1584 1081C1518 1081 1452 1081 1386 1081C1320 1081 1254 1081 1188 1081C1122 1081 1056 1081 990 1081C924 1081 858 1081 792 1081C726 1081 660 1081 594 1081C528 1081 462 1081 396 1081C330 1081 264 1081 198 1081C132 1081 66 1081 33 1081L0 1081Z" fill="#007efa"></path><path d="M0 825L33 825.7C66 826.3 132 827.7 198 832.5C264 837.3 330 845.7 396 864.3C462 883 528 912 594 913.8C660 915.7 726 890.3 792 880.2C858 870 924 875 990 886.8C1056 898.7 1122 917.3 1188 908.3C1254 899.3 1320 862.7 1386 846.8C1452 831 1518 836 1584 839.2C1650 842.3 1716 843.7 1782 855.2C1848 866.7 1914 888.3 1947 899.2L1980 910L1980 1081L1947 1081C1914 1081 1848 1081 1782 1081C1716 1081 1650 1081 1584 1081C1518 1081 1452 1081 1386 1081C1320 1081 1254 1081 1188 1081C1122 1081 1056 1081 990 1081C924 1081 858 1081 792 1081C726 1081 660 1081 594 1081C528 1081 462 1081 396 1081C330 1081 264 1081 198 1081C132 1081 66 1081 33 1081L0 1081Z" fill="#0071f5"></path><path d="M0 953L33 964.2C66 975.3 132 997.7 198 1001.3C264 1005 330 990 396 972.5C462 955 528 935 594 935C660 935 726 955 792 972.8C858 990.7 924 1006.3 990 1013.8C1056 1021.3 1122 1020.7 1188 1018.3C1254 1016 1320 1012 1386 1007.5C1452 1003 1518 998 1584 999.7C1650 1001.3 1716 1009.7 1782 1001.3C1848 993 1914 968 1947 955.5L1980 943L1980 1081L1947 1081C1914 1081 1848 1081 1782 1081C1716 1081 1650 1081 1584 1081C1518 1081 1452 1081 1386 1081C1320 1081 1254 1081 1188 1081C1122 1081 1056 1081 990 1081C924 1081 858 1081 792 1081C726 1081 660 1081 594 1081C528 1081 462 1081 396 1081C330 1081 264 1081 198 1081C132 1081 66 1081 33 1081L0 1081Z" fill="#0064f0"></path></svg>